HIERARCHY
ROOT Hips
{
 OFFSET 0.000000 0.000000 0.000000
 CHANNELS 6 Xposition Yposition Zposition Yrotation Xrotation Zrotation
 JOINT Chest
 {
  OFFSET 0.000000 10.295748 -1.143972
  CHANNELS 3 Yrotation Xrotation Zrotation
  JOINT Chest2
  {
   OFFSET 0.000000 11.463406 0.000000
   CHANNELS 3 Yrotation Xrotation Zrotation
   JOINT Chest3
   {
    OFFSET 0.000000 10.465446 0.003843
    CHANNELS 3 Yrotation Xrotation Zrotation
    JOINT Chest4
    {
     OFFSET 0.000000 10.453763 0.003847
     CHANNELS 3 Yrotation Xrotation Zrotation
     JOINT Neck
     {
      OFFSET 0.000000 14.640069 0.000000
      CHANNELS 3 Yrotation Xrotation Zrotation
      JOINT Head
      {
       OFFSET 0.000000 9.731475 -0.008265
       CHANNELS 3 Yrotation Xrotation Zrotation
       End Site
       {
        OFFSET 0.000000 18.098145 -0.001112
       }
      }
     }
     JOINT RightCollar
     {
      OFFSET -3.176695 8.204215 0.000000
      CHANNELS 3 Yrotation Xrotation Zrotation
      JOINT RightShoulder
      {
       OFFSET -14.761309 0.000000 0.000000
       CHANNELS 3 Yrotation Xrotation Zrotation
       JOINT RightElbow
       {
        OFFSET -31.560813 0.000000 0.000000
        CHANNELS 3 Yrotation Xrotation Zrotation
        JOINT RightWrist
        {
         OFFSET -25.806933 0.000000 0.000000
         CHANNELS 3 Yrotation Xrotation Zrotation
         End Site
         {
          OFFSET -19.288868 0.000000 0.000000
         }
        }
       }
      }
     }
     JOINT LeftCollar
     {
      OFFSET 3.176695 8.204215 0.000000
      CHANNELS 3 Yrotation Xrotation Zrotation
      JOINT LeftShoulder
      {
       OFFSET 14.761309 0.000000 0.000000
       CHANNELS 3 Yrotation Xrotation Zrotation
       JOINT LeftElbow
       {
        OFFSET 31.560813 0.000000 0.000000
        CHANNELS 3 Yrotation Xrotation Zrotation
        JOINT LeftWrist
        {
         OFFSET 25.806933 0.000000 0.000000
         CHANNELS 3 Yrotation Xrotation Zrotation
         End Site
         {
          OFFSET 19.288868 0.000000 0.000000
         }
        }
       }
      }
     }
    }
   }
  }
 }
 JOINT RightHip
 {
  OFFSET -8.449583 -0.008248 0.000916
  CHANNELS 3 Yrotation Xrotation Zrotation
  JOINT RightKnee
  {
   OFFSET 0.000000 -43.941227 0.000909
   CHANNELS 3 Yrotation Xrotation Zrotation
   JOINT RightAnkle
   {
    OFFSET 0.000000 -42.928516 0.001532
    CHANNELS 3 Yrotation Xrotation Zrotation
    JOINT RightToe
    {
     OFFSET 0.000000 -6.852267 15.473535
     CHANNELS 3 Yrotation Xrotation Zrotation
     End Site
     {
      OFFSET 0.000000 -1.580106 6.738334
     }
    }
   }
  }
 }
 JOINT LeftHip
 {
  OFFSET 8.449583 -0.010566 0.001174
  CHANNELS 3 Yrotation Xrotation Zrotation
  JOINT LeftKnee
  {
   OFFSET 0.000000 -43.941227 0.000909
   CHANNELS 3 Yrotation Xrotation Zrotation
   JOINT LeftAnkle
   {
    OFFSET 0.000000 -42.928516 0.001532
    CHANNELS 3 Yrotation Xrotation Zrotation
    JOINT LeftToe
    {
     OFFSET 0.000000 -6.852267 15.473535
     CHANNELS 3 Yrotation Xrotation Zrotation
     End Site
     {
      OFFSET 0.000000 -1.580106 6.738334
     }
    }
   }
  }
 }
}
MOTION
Frames: 7
Frame Time: 0.016667
-10.373547 93.984321 98.251184 5.112031 6.085466 -0.278966 1.104438 1.622550 -1.143838 0.547012 -5.107698 -0.514184 0.544930 0.712469 -0.458650 0.374000 6.370522 -0.346707 -7.061308 16.080831 1.388607 -13.620327 -5.690282 5.089819 -1.108093 -0.790852 6.870581 22.373079 -26.387051 59.348976 9.441746 15.895057 4.512588 -3.631896 10.897050 -4.327540 1.406208 -3.847698 -7.759867 2.609042 5.769348 -75.434142 -0.014029 35.311588 2.881627 -2.945099 14.096109 -4.894294 6.613489 3.714672 1.014600 -2.794559 16.051621 0.624723 4.607902 -9.378271 5.297007 1.185148 -15.689488 -8.933213 -0.826472 -18.932851 0.572260 -1.558197 6.387195 0.323977 -0.541170 5.036319 -8.317971 -0.000000 0.000000 -0.000000
-9.851154 94.168983 99.332386 5.039368 6.060604 -0.178973 1.001833 1.647996 -1.210681 0.504708 -5.096253 -0.543686 0.502806 0.723954 -0.492447 0.339868 6.379123 -0.372179 -7.213686 16.094682 1.387583 -13.901284 -5.648123 5.139002 -1.035630 -0.811583 6.819570 21.485206 -25.896803 60.286291 9.084858 16.763862 4.294266 -3.488703 10.742033 -4.520708 1.349165 -3.894541 -7.701110 1.705060 5.050855 -75.618906 0.234932 35.046562 3.092892 -2.882111 14.199062 -4.748892 6.280549 2.834559 0.399990 -2.447657 18.681163 0.777347 5.011279 -7.777291 6.371638 1.659233 -19.123557 -10.064863 -1.785720 -18.257742 0.412593 -0.558964 6.650112 0.371881 -0.558243 4.025664 -7.543756 0.000000 -0.000000 -0.000000
-9.339477 94.354423 100.432393 4.936534 6.046237 -0.122982 0.906111 1.647653 -1.243477 0.463733 -5.096207 -0.557975 0.461990 0.724035 -0.510896 0.307868 6.379194 -0.386056 -7.349169 16.122645 1.373115 -14.144681 -5.583335 5.155538 -0.999092 -0.858504 6.808575 20.728742 -25.221576 61.144200 8.749544 17.636081 4.078970 -3.334482 10.585813 -4.649368 1.299401 -3.921432 -7.612039 0.756752 4.257461 -75.787369 0.410310 34.796486 3.221409 -2.845546 14.206989 -4.612199 5.900631 1.751640 -0.205828 -1.973157 21.551391 0.982157 5.512639 -5.882890 7.574882 2.165874 -22.316863 -11.392758 -2.165997 -17.403193 0.159200 0.010206 6.547907 0.360878 -0.664404 3.151751 -6.792270 -0.000000 0.000000 0.000000
-8.836993 94.540211 101.596404 4.778511 6.039788 -0.114595 0.826891 1.599976 -1.238231 0.428110 -5.117178 -0.555291 0.426487 0.703091 -0.511829 0.281158 6.363513 -0.386694 -7.462318 16.185033 1.333272 -14.334251 -5.460723 5.113000 -1.034969 -0.954095 6.875414 20.209565 -24.268159 61.861255 8.431391 18.479523 3.876854 -3.168044 10.392627 -4.654358 1.262878 -3.914027 -7.480964 -0.234767 3.430996 -75.950636 0.508742 34.584770 3.259649 -2.877822 14.025899 -4.510481 5.406107 0.478739 -0.792282 -1.259814 24.669468 1.243106 6.269816 -3.505032 8.900355 2.731476 -25.431837 -13.013904 -1.348791 -16.224187 -0.313803 -0.458305 5.852589 0.261313 -0.829590 2.523028 -6.030435 0.000000 -0.000000 -0.000000
-8.345227 94.726778 102.779219 4.590355 6.043593 -0.150251 0.754545 1.527101 -1.198480 0.393803 -5.149328 -0.537223 0.392291 0.670966 -0.497243 0.256595 6.339465 -0.375614 -7.558902 16.260902 1.279163 -14.486809 -5.316946 5.036629 -1.107053 -1.074963 6.982963 19.823251 -23.138695 62.489811 8.133310 19.327397 3.679511 -2.989667 10.202880 -4.595210 1.233326 -3.886015 -7.320139 -1.266948 2.525842 -76.092633 0.533610 34.385314 3.218885 -2.930986 13.748740 -4.409582 4.867382 -0.999378 -1.357338 -0.389431 28.023331 1.584159 7.176191 -0.844981 10.364433 3.303967 -28.309575 -14.823056 0.025218 -14.850582 -0.834582 -1.361274 4.803154 0.130780 -1.081949 2.031519 -5.291770 0.000000 -0.000000 0.000000
-7.866447 94.880726 103.895116 4.429351 6.069197 -0.176478 0.653163 1.465010 -1.157137 0.346548 -5.176619 -0.518383 0.345207 0.643706 -0.483201 0.222331 6.319075 -0.364941 -7.632020 16.306781 1.246032 -14.606273 -5.228434 4.994696 -1.143928 -1.147852 7.089997 19.498455 -22.052013 63.020792 7.884208 20.148245 3.512584 -2.799794 10.118713 -4.543630 1.197554 -3.831924 -7.166834 -2.310072 1.481074 -76.123710 0.392854 34.126524 3.032853 -2.930398 13.544375 -4.353385 4.519921 -2.654541 -1.908811 0.499303 31.489111 2.072239 7.554615 1.482929 11.829274 3.514685 -29.999365 -16.145616 0.932834 -13.616701 -1.217888 -1.929639 3.895390 0.012553 -1.257891 1.531836 -4.656726 -0.000000 0.000000 0.000000
-7.395495 94.983901 104.904011 4.310138 6.130425 -0.167564 0.508511 1.423982 -1.127734 0.280691 -5.194472 -0.504779 0.279605 0.625892 -0.476283 0.173648 6.305773 -0.359640 -7.673866 16.297778 1.252808 -14.687122 -5.239430 5.022662 -1.109578 -1.127382 7.185063 19.263949 -21.084543 63.401042 7.711871 20.943850 3.398990 -2.608036 10.248337 -4.500418 1.152859 -3.758664 -7.024856 -3.318249 0.280408 -76.017379 0.026733 33.782771 2.664842 -2.832009 13.533417 -4.359183 4.518009 -4.540789 -2.495539 1.520463 35.142114 2.895403 6.832078 3.339871 13.427392 3.111686 -30.113411 -16.714042 0.921666 -12.674610 -1.404592 -1.792049 3.316102 -0.109764 -1.280835 0.958355 -4.172150 0.000000 -0.000000 0.000000
